<?xml version="1.0" encoding="UTF-8"?>
<svg width="26px" height="26px" viewBox="0 0 26 26" version="1.1" xmlns="http://www.w3.org/2000/svg" xmlns:xlink="http://www.w3.org/1999/xlink">
    <title>Group 2</title>
    <g id="Page-1" stroke="none" stroke-width="1" fill="none" fill-rule="evenodd">
        <g id="Group-2">
            <circle id="Oval" fill-opacity="0" fill="#D8D8D8" cx="13" cy="13" r="13"></circle>
            <path d="M13.4579221,3.19321043 C19.0735947,3.19321043 23.6259968,7.57377271 23.6259968,12.9774701 C23.6259968,18.3811675 19.0735947,22.7617298 13.4579221,22.7617298 C7.84224948,22.7617298 3.28984735,18.3811675 3.28984735,12.9774701 C3.28984735,7.57377271 7.84224948,3.19321043 13.4579221,3.19321043 Z M13.4788473,14.3792104 L8.38678323,19.0800884 C9.77765272,20.1319628 11.5379738,20.7617298 13.4579221,20.7617298 C15.3976211,20.7617298 17.1743917,20.1189393 18.5718674,19.0474924 L13.4788473,14.3792104 Z M5.28984735,12.9774701 C5.28984735,14.7422176 5.90826255,16.3746512 6.95236702,17.6840334 L11.9998473,13.0232104 L6.89463083,8.34419937 C5.88550364,9.64097466 5.28984735,11.2455001 5.28984735,12.9774701 Z M20.0204374,8.34320243 L14.9538473,13.0172104 L19.99739,17.6412001 C21.0209591,16.3391299 21.6259968,14.7230259 21.6259968,12.9774701 C21.6259968,11.2450563 21.0300352,9.64015225 20.0204374,8.34320243 Z M13.4579221,5.19321043 C11.5044436,5.19321043 9.71621651,5.84516615 8.31425147,6.93034719 L13.4748473,11.6612104 L18.6006037,6.92958179 C17.1987867,5.8448596 15.4109413,5.19321043 13.4579221,5.19321043 Z" id="border-crossing" fill="#000000" fill-rule="nonzero"></path>
        </g>
    </g>
</svg>