<?xml version="1.0" encoding="UTF-8"?>
<svg width="14px" height="14px" viewBox="0 0 14 14" version="1.1" xmlns="http://www.w3.org/2000/svg" xmlns:xlink="http://www.w3.org/1999/xlink">
    <title>noun-conflict-2009241</title>
    <g id="Page-1" stroke="none" stroke-width="1" fill="none" fill-rule="evenodd">
        <g id="noun-conflict-2009241" fill="#FC4932" fill-rule="nonzero">
            <path d="M8.44444444,7 C8.44444444,7.79773778 7.79773778,8.44444444 7,8.44444444 C6.20226222,8.44444444 5.55555556,7.79773778 5.55555556,7 C5.55555556,6.20226222 6.20226222,5.55555556 7,5.55555556 C7.79773778,5.55555556 8.44444444,6.20226222 8.44444444,7" id="Path"></path>
            <path d="M7.11113482,4.66666667 C7.34686403,4.66666667 7.57295639,4.57448369 7.73963936,4.41035776 C7.90632232,4.24619215 8,4.02356602 8,3.79147464 L8,0.873584333 C7.99939807,0.561289189 7.82987954,0.272978144 7.55508142,0.116970626 C7.28031886,-0.0389902086 6.94193893,-0.0389902086 6.6671408,0.116970626 C6.39233083,0.272978144 6.22282675,0.561289189 6.22222222,0.873584333 L6.22222222,3.79147464 C6.22222222,4.02357769 6.3158916,4.24619215 6.48258286,4.41035776 C6.64926583,4.57447669 6.87537005,4.66666667 7.11113482,4.66666667 L7.11113482,4.66666667 Z" id="Path"></path>
            <path d="M5.29518073,5.29518064 C5.46189454,5.12846677 5.55555556,4.90236095 5.55555556,4.66661767 C5.55555556,4.4308744 5.46189688,4.20476857 5.29518073,4.03805471 L1.5175119,0.260384492 C1.29296171,0.0358342261 0.965651079,-0.0518852903 0.658866802,0.0303020486 C0.352117613,0.11253851 0.112491374,0.35212741 0.0303040647,0.658865015 C-0.051886753,0.965649404 0.0358322636,1.29296016 0.260386424,1.51751043 L4.03805526,5.29518064 C4.20472228,5.4618945 4.43082802,5.55555556 4.666618,5.55555556 C4.90236119,5.55555556 5.12846693,5.46189684 5.29518073,5.29518064 L5.29518073,5.29518064 Z" id="Path"></path>
            <path d="M1.99628452,6 L3.78149326,6 C4.27032496,6 4.66666667,6.48882548 4.66666667,6.88516214 L4.66666667,6.89261564 C4.66666667,7.38144112 4.27037237,7.77777778 3.78149326,7.77777778 L1.99628452,7.77777778 C1.50745281,7.77777778 1.11111111,7.2889523 1.11111111,6.89261564 L1.11111111,6.88516214 C1.11111111,6.39633666 1.50740541,6 1.99628452,6 Z" id="Path"></path>
            <path d="M4.09874326,8.69441647 L1.36110006,11.4320693 C1.14550429,11.6476659 1.06128553,11.9618814 1.1402184,12.2563755 C1.21910623,12.5508697 1.44914695,12.7808662 1.74364004,12.8597993 C2.03813313,12.9386874 2.35233573,12.8545216 2.56794335,12.6389169 L5.30558655,9.90126401 C5.52118232,9.68566748 5.60535368,9.37145192 5.52646821,9.07695779 C5.44753297,8.78246367 5.21753965,8.55246717 4.92304657,8.47353402 C4.62855348,8.39464591 4.31435088,8.47881176 4.09874326,8.69441647 L4.09874326,8.69441647 Z" id="Path"></path>
            <path d="M6.88888889,9.33333333 C6.65315628,9.33333333 6.42705871,9.42552747 6.26035945,9.5896401 C6.09366019,9.75374456 6,9.97628775 6,10.208386 L6,13.1249561 C6,13.4375899 6.16943689,13.7264819 6.44446815,13.8827929 C6.7194994,14.039069 7.05832578,14.039069 7.33335704,13.8827929 C7.60834089,13.7264819 7.77777778,13.4375899 7.77777778,13.1249561 L7.77777778,10.208386 C7.77777778,9.97627609 7.68412588,9.75374456 7.51741833,9.5896401 C7.35071907,9.42553563 7.12465706,9.33333333 6.88888889,9.33333333 L6.88888889,9.33333333 Z" id="Path"></path>
            <path d="M9.84562817,8.68489033 C9.63829564,8.4775247 9.33608581,8.3965209 9.05283319,8.47244059 C8.76958058,8.54831696 8.54831797,8.76957612 8.47244348,9.05282724 C8.39652111,9.33607836 8.47751975,9.6382866 8.68484874,9.84566363 L10.1543471,11.3151542 L10.1543471,11.3151097 C10.3617138,11.5224753 10.663935,11.6034791 10.9471876,11.5275594 C11.2304403,11.451683 11.4517029,11.2304239 11.5275774,10.9471728 C11.6034518,10.6639216 11.5225011,10.3617134 11.3151265,10.1543364 L9.84562817,8.68489033 Z" id="Path"></path>
            <path d="M13.0691003,6.00044964 L10.264303,6.00044964 C10.0251818,5.99284167 9.79285063,6.08214311 9.61830476,6.24868074 C9.44375889,6.41521719 9.34126671,6.64550373 9.33333333,6.8888657 L9.33333333,6.88891208 C9.34126309,7.13227405 9.44375655,7.36251309 9.61830476,7.52909704 C9.79285063,7.69563348 10.0251818,7.78494062 10.264303,7.77732814 L13.0689837,7.77732814 C13.3081515,7.78493611 13.540436,7.69563467 13.7149819,7.52909704 C13.8895278,7.36251309 13.99202,7.13227405 14,6.88891208 L14,6.8888657 C13.9920702,6.64545623 13.8895768,6.41521719 13.7150286,6.24868074 C13.5404827,6.0821443 13.3081515,5.99283715 13.0690303,6.00044964 L13.0691003,6.00044964 Z" id="Path"></path>
            <path d="M9.8752157,5.3056016 L10.861142,4.34570255 C11.0767379,4.13010689 11.1609092,3.81589261 11.0820238,3.52139967 C11.0030885,3.22690674 10.7730951,2.99691118 10.478602,2.91797835 C10.1841088,2.83909056 9.8699061,2.92325606 9.65429842,3.1388599 L8.6943986,4.09875895 C8.53435209,4.25880533 8.44444444,4.47583505 8.44444444,4.70218027 C8.44444444,4.92852549 8.5343509,5.14555521 8.6943986,5.3056016 C8.84925403,5.46536354 9.06226617,5.55555556 9.28480715,5.55555556 C9.50730072,5.55555556 9.72031286,5.46537065 9.8752157,5.3056016 L9.8752157,5.3056016 Z" id="Path"></path>
        </g>
    </g>
</svg>